assisted_ideal_fixed_footbody_states
version=1
nRows=162
nColumns=3
inDegrees=yes

# SIMM Motion File Header:
name assisted_ideal_fixed_footbody_states
datacolumns 3
datarows 162
otherdata 1
range 0.000000 10.000000
endheader
time	/jointset/Ankle/Ankle_Angle/value	/jointset/Ankle/Ankle_Angle/speed
      0.00000000	      3.19346010	     -0.21043603
      0.01000000	      3.19427048	      0.37253702
      0.06000000	      3.28620802	      3.31893579
      0.16159297	      3.94848461	      9.92329321
      0.26318595	      5.36616640	     18.42266921
      0.36477892	      7.80968958	     30.43203145
      0.46637189	     11.74338689	     48.20677526
      0.56796487	     17.90784885	     74.99116497
      0.63801387	     24.03025858	    101.03096174
      0.69838788	     30.97162327	    130.04544265
      0.75173770	     38.72933799	    161.81209829
      0.80508753	     48.35332009	    200.10736619
      0.84994549	     58.15290639	    237.60864368
      0.89480344	     69.73901895	    279.65405361
      0.93966140	     83.29484545	    325.16554648
      0.98451935	     98.93154633	    371.95819298
      1.02937730	    116.63288698	    416.52383844
      1.07423526	    136.19744550	    454.18698623
      1.11909321	    157.20114922	    479.88283343
      1.16395117	    179.00904504	    489.52951007
      1.20880912	    200.85279981	    481.45788217
      1.25366707	    221.95786947	    457.06973745
      1.29852503	    241.67311851	    420.28225531
      1.34338298	    259.55402655	    376.13411088
      1.38824094	    275.38008350	    329.37826554
      1.43309889	    289.12060512	    283.64247439
      1.47795684	    300.87767192	    241.22568996
      1.52281480	    310.82993042	    203.29249764
      1.56767275	    319.18899424	    170.20438624
      1.61253071	    326.17061614	    141.83016883
      1.65738866	    331.97810493	    117.77775655
      1.71372206	    337.88692026	     92.91979931
      1.77005547	    342.54085423	     73.05915919
      1.82638887	    346.19422625	     57.24940793
      1.89708724	    349.67318385	     41.89953092
      1.96778560	    352.20765740	     30.33726817
      2.03848397	    354.02766755	     21.53819135
      2.12960290	    355.58217022	     13.01142901
      2.22072183	    356.45896629	      6.47622894
      2.31184076	    356.79234404	      0.93347782
      2.40295970	    356.63340212	     -4.46616621
      2.51419343	    355.73042002	    -12.07461829
      2.62542716	    353.84537190	    -22.45432869
      2.72099738	    351.12027729	    -35.35960485
      2.81656761	    346.89990235	    -54.16517277
      2.91213783	    340.48526629	    -81.86409775
      2.97956595	    334.09393277	   -108.92019657
      3.03759427	    326.94264128	   -138.65475974
      3.08946381	    318.93183085	   -171.23683355
      3.14133335	    309.06932821	   -210.12475543
      3.18555050	    298.94949478	   -248.36963441
      3.22976765	    287.04215614	   -290.84008295
      3.27398480	    273.18509119	   -336.26001429
      3.31820195	    257.29621582	   -382.23785709
      3.36241909	    239.42707092	   -425.12364369
      3.40663624	    219.81465105	   -460.26981877
      3.45085339	    198.90876102	   -482.89197264
      3.49507054	    177.34927768	   -489.41588954
      3.53928769	    155.88303380	   -478.73618167
      3.58350483	    135.24114366	   -452.64478956
      3.62772198	    116.02238014	   -415.14538761
      3.67193913	     98.62423574	   -371.10106103
      3.71615628	     83.23435228	   -324.97016025
      3.76037343	     69.86637519	   -280.09859620
      3.80459057	     58.41393161	   -238.58173550
      3.84880772	     48.70223733	   -201.46653885
      3.89302487	     40.52766170	   -169.06286754
      3.93724202	     33.68378140	   -141.22910113
      3.98145917	     27.97636484	   -117.58427830
      4.03786326	     22.07079639	    -92.73621070
      4.09426735	     17.42099241	    -72.88969267
      4.15067145	     13.77215251	    -57.09572907
      4.22140754	     10.30113718	    -41.77496582
      4.29214362	      7.77329746	    -30.23494343
      4.36287971	      5.95895285	    -21.45188112
      4.45406591	      4.41062099	    -12.93584230
      4.54525211	      3.53990420	     -6.40277823
      4.63643830	      3.21324511	     -0.85237575
      4.72762450	      3.38050011	      4.56715823
      4.83879624	      4.29598251	     12.21160436
      4.94996799	      6.19846959	     22.65545643
      5.04549640	      8.94550893	     35.64875829
      5.14102481	     13.19747044	     54.58412667
      5.23655322	     19.65772072	     82.46970849
      5.30361852	     26.05619255	    109.54659896
      5.36148668	     33.22591891	    139.34568501
      5.41324425	     41.25691316	    171.99206000
      5.46500182	     51.13851615	    210.92617644
      5.50917142	     61.28422204	    249.22922207
      5.55334102	     73.21755016	    291.73140635
      5.59751062	     87.09903576	    337.14068472
      5.64168022	    103.00843357	    383.04912808
      5.68584982	    120.89139065	    425.79602959
      5.73001942	    140.50810247	    460.73701392
      5.77418902	    161.40675620	    483.11090346
      5.81835862	    182.94711355	    489.38412026
      5.86252822	    204.38403470	    478.49549311
      5.90669782	    224.98977913	    452.26705439
      5.95086742	    244.16962211	    414.70890189
      5.99503702	    261.52970998	    370.67042963
      6.03920663	    276.88496529	    324.58719036
      6.08337623	    290.22310455	    279.78319862
      6.12754583	    301.65088747	    238.33782251
      6.17171543	    311.34285238	    201.28857453
      6.21588503	    319.50205508	    168.94096449
      6.26005463	    326.33422682	    141.15226119
      6.30422423	    332.03291423	    117.54213779
      6.36063832	    337.93725520	     92.69775928
      6.41705241	    342.58581914	     72.85492924
      6.47346650	    346.23344142	     57.06431893
      6.54420938	    349.70273665	     41.74804291
      6.61495226	    352.22902436	     30.21085164
      6.68569515	    354.04189058	     21.42897307
      6.77689102	    355.58827007	     12.91183462
      6.86808690	    356.45671870	      6.37441312
      6.95928278	    356.78047417	      0.81550635
      7.05047865	    356.60924481	     -4.61816646
      7.16159691	    355.68735703	    -12.28582131
      7.27271516	    353.77561577	    -22.76706558
      7.36822110	    351.01625069	    -35.81210368
      7.46372703	    346.74630973	    -54.82288433
      7.55923297	    340.25991812	    -82.81641815
      7.62609332	    333.85727077	   -109.90604533
      7.68387010	    326.67699147	   -139.74230307
      7.73556377	    318.63442415	   -172.42566020
      7.78725744	    308.74186006	   -211.38631422
      7.83139995	    298.58128667	   -249.72271953
      7.87554247	    286.63302083	   -292.24299433
      7.91968498	    272.73749748	   -337.64591968
      7.96382749	    256.81630131	   -383.51418435
      8.00797001	    238.92540067	   -426.18096030
      8.05211252	    219.30621231	   -461.00377424
      8.09625503	    198.41169889	   -483.23486218
      8.14039755	    176.88230307	   -489.36400427
      8.18454006	    155.46219228	   -478.35537481
      8.22868258	    134.87717391	   -452.04821133
      8.27282509	    115.71965527	   -414.45625354
      8.31696760	     98.38140743	   -370.42103715
      8.36111012	     83.04603942	   -324.36505695
      8.40525263	     69.72505345	   -279.59978595
      8.44939514	     58.31146600	   -238.19542005
      8.49353766	     48.63087711	   -201.18404354
      8.53768017	     40.48055825	   -168.86865418
      8.58182269	     33.65517330	   -141.10586584
      8.62596520	     27.96156748	   -117.51569927
      8.68238525	     22.05803378	    -92.67347322
      8.73880531	     17.41028937	    -72.83271787
      8.79522536	     13.76348263	    -57.04389576
      8.86597205	     10.29535676	    -41.72993220
      8.93671873	      7.77016809	    -30.19384784
      9.00746542	      5.95840466	    -21.41182968
      9.09866580	      4.41359278	    -12.89251253
      9.18986618	      3.54706534	     -6.35014223
      9.28106656	      3.22586657	     -0.78265415
      9.37226695	      3.40067604	      4.66463368
      9.48333262	      4.32841061	     12.35431384
      9.59439830	      6.24865274	     22.87047567
      9.68988415	      9.01947926	     35.96399555
      9.78536999	     13.30618748	     55.04534296
      9.88085584	     19.81700026	     83.13986195
      9.94752713	     26.22362922	    110.24179211
     10.00000000	     32.69030483	    137.13410189
